<?xml version="1.0" encoding="utf-8"?>
<!-- Generator: Adobe Illustrator 24.1.2, SVG Export Plug-In . SVG Version: 6.00 Build 0)  -->
<svg version="1.1" id="Layer_1" xmlns="http://www.w3.org/2000/svg" xmlns:xlink="http://www.w3.org/1999/xlink" x="0px" y="0px"
	 viewBox="0 0 30 30" style="enable-background:new 0 0 30 30;" xml:space="preserve">
<style type="text/css">
	.st0{fill:#BA2326;}
	.st1{fill:#FFFFFF;}
</style>
<path class="st0" d="M15,30L15,30C6.7,30,0,23.3,0,15l0,0C0,6.7,6.7,0,15,0l0,0c8.3,0,15,6.7,15,15l0,0C30,23.3,23.3,30,15,30z"/>
<g>
	<path class="st1" d="M5.5,8.2h8.2c0.2,0,0.4,0.2,0.4,0.5v1.9c0,0.2-0.2,0.5-0.4,0.5H8.4c-0.2,0-0.4,0.2-0.4,0.5V13
		c0,0.2,0.2,0.5,0.4,0.5h4.9c0.2,0,0.4,0.2,0.4,0.5v1.8c0,0.2-0.2,0.5-0.4,0.5H8.4c-0.2,0-0.4,0.2-0.4,0.5v1.3
		c0,0.2,0.2,0.5,0.4,0.5h5.5c0.2,0,0.4,0.2,0.4,0.5v2.3c0,0.2-0.2,0.5-0.4,0.5H5.5c-0.7,0-1.2-0.6-1.2-1.4V9.6
		C4.3,8.9,4.9,8.2,5.5,8.2z"/>
</g>
<g>
	<path class="st1" d="M17,11.1h1c0.7,0,1.2,0.5,1.2,1.2v0.6c0.5-0.7,1-1.2,1.5-1.5c0.5-0.3,1.1-0.5,1.9-0.5c1,0,1.8,0.3,2.3,1
		s0.8,1.7,0.8,3.1v5.6c0,0.7-0.5,1.2-1.2,1.2h-1.2c-0.7,0-1.2-0.5-1.2-1.2v-4.7c0-0.7-0.1-1.1-0.3-1.4c-0.2-0.3-0.5-0.4-0.9-0.4
		c-0.4,0-0.8,0.2-1.1,0.6c-0.3,0.4-0.4,1-0.4,2v3.9c0,0.7-0.5,1.2-1.2,1.2H17c-0.7,0-1.2-0.5-1.2-1.2v-8.3
		C15.8,11.6,16.4,11.1,17,11.1z"/>
</g>
</svg>
