<?xml version="1.0" encoding="utf-8"?>
<!-- Generator: Adobe Illustrator 24.1.2, SVG Export Plug-In . SVG Version: 6.00 Build 0)  -->
<svg version="1.1" id="Layer_1" xmlns="http://www.w3.org/2000/svg" xmlns:xlink="http://www.w3.org/1999/xlink" x="0px" y="0px"
	 viewBox="0 0 255 68.8" style="enable-background:new 0 0 255 68.8;" xml:space="preserve">
<style type="text/css">
	.st0{fill:#BA2025;}
	.st1{fill:#E8B92C;}
</style>
<g>
	<g>
		<path class="st0" d="M251.2,30.3c-3.3-2.6-6.7-2.3-6.7-2.3h-37.8c0,0-4.5,0.3-7.9-3.2c-2.8-2.9-3.1-6.2-3.1-7.2
			c0,1.9,0,10.8,0,12.5c0,2,0.6,5.7,3.9,8.3c3.3,2.6,6.9,2.5,6.9,2.5s36.3,0,38.1,0s5,0.4,7.9,3.5c3,3.1,2.8,7.3,2.8,7.3
			s0-10.8,0-12.9C255.3,36.6,254.4,32.8,251.2,30.3z"/>
	</g>
	<g>
		<path class="st1" d="M253.1,51.2l-22.7,12.2L252.9,50c-0.1-0.4-0.2-0.8-0.3-1.2l-22.5,12.5l22.1-13.5c-0.2-0.3-0.3-0.6-0.6-1
			l-22,12.3L251,46l-0.1-0.1c-0.3-0.3-0.5-0.5-0.8-0.8l-21.2,11.7l20.4-12.3c-0.4-0.3-0.8-0.5-1.2-0.7l-19.8,10.6l18.4-11.2
			c-1-0.3-1.7-0.3-1.7-0.3h-0.5l-16.8,9.2L242,43h-2.3l-12.5,6.8l10.4-6.8h-2.3l-8.6,4.7l6.8-4.7h-8.1v25.8l27.6-16v-1.2
			C253.1,51.6,253.1,51.5,253.1,51.2z"/>
		<path class="st1" d="M225.5,25.8V0l-27.6,16v1.2c0,0,0,0.1,0,0.3l22.6-12.2L198,18.8c0.1,0.4,0.2,0.8,0.3,1.2l22.6-12.5L198.8,21
			c0.2,0.3,0.3,0.6,0.6,1l22-12.3l-21.5,13.1l0.1,0.1c0.3,0.3,0.5,0.5,0.8,0.8L222.1,12l-20.5,12.3c0.4,0.3,0.8,0.5,1.2,0.7
			l19.9-10.6l-18.4,11.2c1,0.3,1.7,0.3,1.7,0.3h0.5l16.8-9.1L209,25.9h2.3l12.5-6.9l-10.4,6.8h2.3l8.6-4.7l-6.8,4.7H225.5z"/>
	</g>
</g>
<g>
	<rect x="4.3" y="11.1" width="2.4" height="2.5"/>
	<path d="M13.7,15.2h-2.4v6.2c0,1.6-0.8,2.5-2.3,2.5H4.7c-1.5,0-2.2-0.8-2.2-2.5v-6.2H0.1v6.3c0,2.9,1.8,4.7,4.7,4.7h4.1
		c2.9,0,4.7-1.8,4.7-4.7v-6.3H13.7z"/>
	<rect x="7.4" y="11.1" width="2.4" height="2.5"/>
	<rect x="15.5" y="11" width="2.4" height="15"/>
	<path d="M18.7,30.1c1.1,0,2-0.4,2.8-1.1c0.9-0.9,1.4-2.2,1.4-3.7V15.2h-2.3v9v0.3c0,0.6,0,1.5-0.3,2.3c-0.3,0.7-1,1.3-1.7,1.3h-0.2
		v2.1L18.7,30.1C18.6,30.1,18.7,30.1,18.7,30.1z"/>
	<rect x="28.3" y="27.6" width="2.4" height="2.5"/>
	<rect x="31.4" y="27.6" width="2.3" height="2.5"/>
	<path d="M61.3,26.1h0.1h0.3l0.2-0.1l0,0c2.5-0.3,4-2,4-4.6V11h-2.3v10.3c0,1.5-0.8,2.4-2.4,2.4c-1.4,0-2.2-0.7-2.2-1.9V11.1h-2.4
		v10.7c0,1.3-0.8,2-2.1,2h-2.2v-8.6h-2.4v8.6h-3.2v-8.6h-2.1v8.6h-3v-8.5h-2.3v8.5H36c-1.5,0-2.4-0.7-2.4-1.9v-6.7h-2.4v6.7
		c0,1.2-0.7,1.9-2,2c-1.5,0-2.4-0.9-2.4-2.5V11.1h-2.2v10.4c0,2.6,1.5,4.3,4,4.6v0.1h0.6h0.1h0.1h0.1h0.2l0,0
		c1.2-0.1,2.2-0.5,2.9-1.3c0.7,0.8,1.7,1.2,3,1.3l0,0h18.7h0.8l0,0c1.2-0.1,2.2-0.5,2.9-1.3c0.7,0.7,1.7,1.2,2.9,1.3v0.1h0.2
		C61.2,26.1,61.2,26.1,61.3,26.1L61.3,26.1L61.3,26.1z"/>
	<path d="M73.9,28.6c0-0.8,0.6-2.5,2.5-2.5h9V26c2.5-0.3,4-2,4-4.6V11H87v10.3c0,1.6-0.9,2.5-2.5,2.5h-2c-0.1-4.1-2.2-8.4-7.9-8.4
		h-0.2v2.2h0.2c0,0,2.2-0.1,3.8,1.4c1.2,1.1,1.7,2.7,1.8,4.9h-3.8c-3.6,0-4.7,3.5-4.7,4.8v1.6H74L73.9,28.6L73.9,28.6z"/>
	<path d="M95.2,26L95.2,26l10.3,0.1c3.9,0,4.9-3.7,4.9-5.6c0-2.4-1.5-4.8-4.3-4.8c-1.9,0-3.6,1.1-4.9,3.2v-3.6h-2.3v8.5H96
		c-1.6,0-2.5-0.8-2.5-2.5V11h-2.4v10.4C91.1,24,92.7,25.7,95.2,26z M105.6,23.8h-4.4v-0.7c1.2-3.5,2.9-5.3,4.9-5.3
		c1.4,0,2,1.3,2,2.6C108.1,21.4,107.8,23.8,105.6,23.8z"/>
	<rect x="119.5" y="11" width="2.3" height="2.5"/>
	<rect x="122.6" y="11" width="2.3" height="2.5"/>
	<path d="M120.5,26.1h16.4l-0.7-2.3h-3.6c-1.6,0-2.4-1.7-2.4-3.4c0-0.8,0.4-3.1,2-3.1c0.5,0,0.9,0.2,1.2,0.6l0.1,0.1h2.6l-0.1-0.3
		c-0.7-1.8-1.9-2.6-3.7-2.6c-3.5,0-4.3,3.5-4.3,5.3c0,1.5,0.3,2.4,0.9,3.3h-3.8V15h-4.5c-2.8,0-4.4,2-4.4,5.6
		C116.1,24.4,118.4,26.1,120.5,26.1z M118.5,20.8c0-0.4,0.1-3.5,2-3.5h2v6.5h-2C119,23.8,118.5,22,118.5,20.8z"/>
	<rect x="166" y="27.6" width="2.4" height="2.5"/>
	<path d="M181,26.1c2.9,0,4.6-2.2,4.6-5.8c0-3.7-1.7-5.9-4.6-5.9c-2.6,0-4.4,2-4.5,5.4h-0.1V20c0,0.1,0,0.3,0,0.4
		c0,0.7,0,1.3-0.3,2.1c-0.4,0.8-1,1.3-1.8,1.3h-2.1c-0.1-4.1-2.2-8.4-7.9-8.4h-0.2v2.2h0.2c0,0,2.2-0.1,3.8,1.4
		c1.2,1.1,1.7,2.7,1.8,4.9h-6.8c-1.5,0-2.4-0.7-2.4-1.9c-0.1-3.4-1.8-5.5-4.5-5.5c-2.8,0-4.5,2.1-4.7,5.7c-0.1,1.2-0.7,1.7-2,1.7
		h-2.1v-8.7h-4.5c-2.8,0-4.4,2-4.4,5.6s2.3,5.3,4.4,5.3h2C144.8,27,144,28,143,28h-0.2v2.1h0.3c2.3,0,3.9-1.6,4.2-4h2.5h0.2l0,0
		c0.8-0.1,1.5-0.3,2-0.6c0.7,1.7,2.2,2.7,4.1,2.7c2,0,3.4-1,4.1-2.8c0.6,0.4,1.5,0.7,2.4,0.8h12.2h0.2l0,0c1.1-0.2,2-0.7,2.6-1.5
		C178.4,25.6,179.6,26.1,181,26.1z M178.9,20.3c0-2.5,0.7-3.8,2.2-3.8c0.9,0,2.2,0.4,2.2,3.8c0,2.4-0.7,3.6-2.2,3.6
		C179.6,24,178.9,22.7,178.9,20.3z M158.3,22.3c0,2.4-0.7,3.6-2.2,3.6s-2.2-1.2-2.2-3.6c0-2.5,0.7-3.7,2.2-3.7
		C157.1,18.5,158.3,18.9,158.3,22.3z M145,23.8h-2c-1.5,0-2-1.8-2-3c0-0.4,0.1-3.5,2-3.5h2V23.8z"/>
</g>
<g>
	<path d="M11.3,45.8L11.3,45.8c-0.6-0.4-1.4-0.8-2.5-1l-2.2-0.5c-1.4-0.3-2.4-0.6-2.7-0.8c-0.6-0.3-0.8-0.8-0.8-1.4
		c0-0.6,0.3-1.1,0.7-1.6c0.5-0.4,1.3-0.7,2.5-0.7c1.4,0,2.5,0.3,3,1.1c0.3,0.4,0.5,1,0.6,1.7v0.2h2.5v-0.3c0-1.7-0.6-3-1.8-3.8
		c-1.2-0.8-2.6-1.2-4.3-1.2c-1.8,0-3.2,0.4-4.3,1.4c-1,0.9-1.5,2-1.5,3.5c0,1.3,0.5,2.3,1.6,3c0.6,0.4,1.6,0.7,3,1l2.1,0.4
		c1.1,0.3,1.9,0.5,2.4,0.9c0.5,0.3,0.7,0.8,0.7,1.5c0,1-0.6,1.6-1.7,2c-0.6,0.2-1.3,0.3-2,0.3c-1.6,0-2.8-0.5-3.5-1.4
		c-0.3-0.5-0.5-1.1-0.6-1.9V48H0v0.3c0,1.7,0.5,3,1.7,4c1.1,1,2.7,1.5,4.7,1.5c1.7,0,3.2-0.4,4.5-1.1c1.3-0.8,2-2,2-3.7
		C12.9,47.6,12.3,46.5,11.3,45.8z"/>
	<path d="M26.2,51.6c-0.1,0-0.2,0-0.3,0c-0.3,0-0.3-0.1-0.3-0.1c-0.1-0.1-0.1-0.2-0.1-0.3V45c0-1.1-0.5-2-1.4-2.5s-2-0.8-3.4-0.8
		c-1.2,0-2.3,0.3-3.2,0.8c-1,0.6-1.5,1.6-1.5,3v0.3h2.3v-0.2c0.1-0.5,0.2-0.9,0.4-1.2c0.4-0.4,1-0.7,2-0.7c0.8,0,1.5,0.1,1.9,0.4
		s0.6,0.6,0.6,1.2c0,0.3,0,0.5-0.1,0.6c-0.1,0.2-0.3,0.3-0.7,0.4l-3.1,0.4c-1.1,0.1-2.1,0.5-2.8,1.1c-0.7,0.6-1.1,1.4-1.1,2.5
		c0,1,0.4,1.8,1.1,2.5s1.7,1,2.8,1c0.9,0,1.8-0.2,2.6-0.6c0.6-0.3,1.1-0.6,1.5-1c0.1,0.3,0.2,0.5,0.3,0.6c0.3,0.5,0.9,0.8,1.7,0.8
		c0.3,0,0.5,0,0.7,0s0.4-0.1,0.7-0.2H27v-1.8h-0.3C26.4,51.6,26.2,51.6,26.2,51.6z M23,48v1.1c0,1-0.5,1.7-1.5,2.2
		c-0.6,0.3-1.3,0.4-1.9,0.4c-0.5,0-0.9-0.1-1.3-0.4c-0.3-0.3-0.5-0.6-0.5-1c0-0.6,0.3-1,0.8-1.3c0.3-0.2,0.9-0.3,1.5-0.4l1.2-0.1
		c0.4,0,0.8-0.1,1.1-0.2C22.6,48.1,22.8,48.1,23,48z"/>
	<rect x="29.2" y="38" width="2.4" height="15.3"/>
	<path d="M44.1,43.8c-0.4-0.6-1-1.1-1.9-1.5c-0.8-0.4-1.6-0.6-2.5-0.6c-1.7,0-3.1,0.6-4.1,1.7c-1,1.1-1.6,2.6-1.6,4.4
		s0.5,3.3,1.6,4.3c1,1,2.3,1.5,3.8,1.5c0.6,0,1.2-0.1,1.6-0.2c0.9-0.2,1.7-0.6,2.3-1.1c0.4-0.3,0.7-0.8,1-1.3s0.5-1,0.5-1.4v-0.3
		h-2.2l-0.1,0.2c-0.1,0.4-0.3,0.9-0.7,1.2c-0.6,0.6-1.3,0.9-2.2,0.9c-1,0-1.7-0.3-2.2-0.9c-0.4-0.6-0.7-1.3-0.8-2.3H45v-0.1
		c0-1.1-0.1-1.9-0.2-2.4C44.7,45.1,44.5,44.4,44.1,43.8z M36.7,46.6c0.1-0.8,0.4-1.4,0.9-1.9c0.6-0.6,1.2-0.9,2.1-0.9
		c1.2,0,2,0.4,2.5,1.2c0.2,0.4,0.4,0.9,0.5,1.5L36.7,46.6z"/>
	<path d="M53.3,41.8c-1,0-1.8,0.2-2.5,0.6c-0.3,0.2-0.6,0.4-0.9,0.8V38h-2.4v15.4h2.4v-6c0-1.4,0.3-2.3,0.9-2.7
		c0.6-0.5,1.3-0.7,2-0.7c0.9,0,1.5,0.3,1.8,0.8c0.2,0.3,0.3,0.9,0.3,1.6v7.1h2.5v-7.2c0-1.1-0.2-2-0.5-2.6
		C56.3,42.4,55.1,41.8,53.3,41.8z"/>
	<path d="M77.2,47.6c-0.2,0.9-0.5,1.7-0.9,2.3l0,0c-0.8,1.1-1.9,1.6-3.4,1.6c-1.6,0-2.8-0.5-3.7-1.5c-0.8-1-1.2-2.4-1.2-4.1
		c0-2,0.5-3.6,1.4-4.6s2.1-1.5,3.6-1.5c1.2,0,2.1,0.3,2.8,0.8s1.1,1.2,1.3,2.1v0.2h2.6v-0.3c-0.1-1.3-0.8-2.5-1.9-3.5
		c-1.1-1-2.8-1.5-4.8-1.5c-2.4,0-4.3,0.8-5.7,2.4c-1.3,1.4-1.9,3.3-1.9,5.5c0,3,0.9,5.2,2.6,6.6c1.3,1.1,2.9,1.6,4.8,1.6
		c2.2,0,3.9-0.7,5.2-2c1.1-1.1,1.7-2.5,1.9-4.1v-0.3h-2.6L77.2,47.6z"/>
	<path d="M92.7,51.6c-0.1,0-0.2,0-0.3,0c-0.3,0-0.3-0.1-0.3-0.1C92,51.4,92,51.3,92,51.2V45c0-1.1-0.5-2-1.4-2.5s-2-0.8-3.4-0.8
		c-1.2,0-2.3,0.3-3.2,0.8c-1,0.6-1.5,1.6-1.5,3v0.3h2.3v-0.2c0.1-0.5,0.2-0.9,0.4-1.1c0.4-0.4,1-0.7,2-0.7c0.8,0,1.5,0.1,1.9,0.4
		s0.6,0.6,0.6,1.2c0,0.3,0,0.5-0.1,0.6c-0.1,0.2-0.3,0.3-0.7,0.4l-3.1,0.4c-1.1,0.1-2.1,0.5-2.8,1.1c-0.7,0.6-1.1,1.4-1.1,2.5
		c0,1,0.4,1.8,1.1,2.5c0.7,0.7,1.7,1,2.8,1c0.9,0,1.8-0.2,2.6-0.6c0.6-0.3,1.1-0.6,1.5-1c0.1,0.3,0.2,0.5,0.3,0.6
		c0.3,0.5,0.9,0.8,1.7,0.8c0.3,0,0.5,0,0.7,0s0.4-0.1,0.7-0.2h0.2v-1.8h-0.3C92.9,51.6,92.7,51.6,92.7,51.6z M89.5,48v1.1
		c0,1-0.5,1.7-1.5,2.2c-0.6,0.3-1.3,0.4-1.9,0.4c-0.5,0-0.9-0.1-1.3-0.4c-0.3-0.3-0.5-0.6-0.5-1c0-0.6,0.3-1,0.8-1.3
		c0.3-0.2,0.9-0.3,1.5-0.4l1.2-0.1c0.4,0,0.8-0.1,1.1-0.2C89.2,48.1,89.4,48.1,89.5,48z"/>
	<path d="M100.7,41.8c-0.1,0-0.1,0-0.2,0c-0.8,0-1.6,0.3-2.2,0.9c-0.3,0.3-0.5,0.5-0.7,0.7v-1.3h-2.3v11.3h2.4v-6.5
		c0-0.7,0.3-1.3,0.7-1.9c0.5-0.5,1.2-0.8,2.1-0.8c0.1,0,0.2,0,0.3,0s0.2,0,0.3,0l0.3,0.1v-2.4h-0.2C101,41.9,100.9,41.8,100.7,41.8z
		"/>
	<path d="M109.5,46.6l-1.3-0.3c-0.5-0.1-1-0.3-1.2-0.4c-0.4-0.3-0.6-0.5-0.6-0.9c0-0.3,0.2-0.6,0.5-0.9c0.3-0.2,0.9-0.3,1.6-0.3
		c1.1,0,1.8,0.2,2.2,0.6c0.3,0.3,0.4,0.6,0.4,1v0.2h2.3v-0.2c0-0.8-0.3-1.4-0.8-2.1c-0.8-1-2.2-1.5-4-1.5c-1.4,0-2.6,0.3-3.4,1
		c-0.9,0.7-1.3,1.6-1.3,2.7c0,0.9,0.5,1.7,1.4,2.2c0.5,0.3,1.3,0.6,2.3,0.8l1.6,0.4c0.8,0.2,1.4,0.3,1.6,0.5
		c0.4,0.2,0.5,0.5,0.5,0.9c0,0.5-0.2,0.9-0.7,1.2c-0.5,0.3-1.1,0.4-1.8,0.4c-1.2,0-2-0.3-2.4-0.8c-0.3-0.3-0.4-0.7-0.4-1.3v-0.2
		h-2.3v0.3c0.1,1.1,0.5,2.1,1.2,2.9c0.8,0.8,2.1,1.2,3.9,1.2c1.7,0,3-0.4,3.8-1.1c0.9-0.8,1.3-1.6,1.3-2.7c0-1.1-0.4-1.9-1.3-2.4
		C111.9,47.3,110.9,47,109.5,46.6z"/>
	<path d="M129.7,47.1h5c-0.1,1.5-0.5,2.7-1.3,3.4c-0.9,0.7-2,1.1-3.3,1.1c-1.8,0-3-0.5-3.8-1.6c-0.8-1.1-1.2-2.5-1.2-4.2
		c0-2,0.5-3.5,1.4-4.4c0.9-1,2.1-1.5,3.5-1.5c1.2,0,2.1,0.3,2.9,0.7c0.8,0.5,1.2,1.2,1.5,2.2V43h2.6l-0.1-0.3c-0.3-2-1.4-3.4-3-4.3
		c-1.1-0.6-2.4-0.8-3.9-0.8c-2.2,0-4,0.7-5.4,2.2s-2.2,3.6-2.2,6.1s0.8,4.6,2.3,6c1.4,1.2,3,1.8,4.9,1.8c1.5,0,2.7-0.3,3.7-0.8
		c0.5-0.3,1-0.7,1.7-1.3l0.5,1.7h1.8v-8.4h-7.7L129.7,47.1L129.7,47.1z"/>
	<path d="M145.8,41.8c-0.1,0-0.2,0-0.2,0c-0.8,0-1.6,0.3-2.2,0.9c-0.3,0.3-0.5,0.5-0.7,0.7v-1.3h-2.3v11.3h2.4v-6.5
		c0-0.7,0.3-1.3,0.7-1.9c0.5-0.5,1.2-0.8,2.1-0.8c0.1,0,0.2,0,0.3,0s0.2,0,0.3,0l0.3,0.1v-2.4h-0.2
		C146.1,41.9,145.9,41.8,145.8,41.8z"/>
	<path d="M153.6,41.7c-1.7,0-3.1,0.6-4.1,1.7c-1,1.1-1.5,2.6-1.5,4.5c0,1.8,0.5,3.2,1.4,4.2c1,1,2.3,1.6,3.9,1.6
		c2,0,3.5-0.6,4.4-1.8c0.9-1.2,1.4-2.7,1.4-4.5c0-1.9-0.5-3.3-1.6-4.3C156.4,42.2,155.1,41.7,153.6,41.7z M156.6,47.5
		c0,1.1-0.2,2-0.7,2.9c-0.4,0.9-1.2,1.2-2.4,1.2c-1.1,0-1.9-0.3-2.4-1s-0.8-1.6-0.8-2.7c0-1.1,0.3-2.1,0.8-2.9s1.3-1.2,2.4-1.2
		c1.3,0,2.1,0.4,2.6,1.4C156.5,45.8,156.6,46.6,156.6,47.5z"/>
	<path d="M169,47.6c0,1-0.1,1.8-0.4,2.4c-0.4,1-1.3,1.5-2.5,1.5c-0.8,0-1.4-0.3-1.7-0.9c-0.2-0.3-0.3-0.7-0.3-1.2V42h-2.5v7.6
		c0,1,0.2,1.7,0.5,2.3c0.6,1.1,1.8,1.7,3.5,1.7c1.1,0,2-0.3,2.8-0.9c0.2-0.2,0.4-0.3,0.5-0.5v1.1h2.3V42h-2.4L169,47.6L169,47.6z"/>
	<path d="M183.9,43.3L183.9,43.3c-1-1-2.1-1.5-3.5-1.5c-0.9,0-1.8,0.2-2.5,0.6c-0.3,0.2-0.6,0.4-0.9,0.7v-1h-2.4v15.6h2.4v-5.2
		c0.3,0.3,0.6,0.5,0.8,0.7c0.6,0.4,1.4,0.6,2.3,0.6c1.2,0,2.2-0.3,3.1-1c1.4-1,2.1-2.8,2.1-5.2C185.3,45.7,184.8,44.3,183.9,43.3z
		 M182.8,47.7c0,1.4-0.3,2.4-0.9,3c-0.6,0.6-1.3,1-2.1,1c-1.3,0-2.1-0.5-2.6-1.5c-0.3-0.5-0.4-1.2-0.4-2c0-1,0.1-1.8,0.4-2.5
		c0.5-1.2,1.3-1.7,2.6-1.7c1.3,0,2.1,0.5,2.6,1.6C182.7,46.1,182.8,46.8,182.8,47.7z"/>
</g>
</svg>
