<?xml version="1.0" encoding="utf-8"?>
<!-- Generator: Adobe Illustrator 23.0.3, SVG Export Plug-In . SVG Version: 6.00 Build 0)  -->
<svg version="1.1" id="Layer_1" xmlns="http://www.w3.org/2000/svg" xmlns:xlink="http://www.w3.org/1999/xlink" x="0px" y="0px"
	 viewBox="0 0 23.02 25" style="enable-background:new 0 0 23.02 25;" xml:space="preserve">
<style type="text/css">
	.st0{fill:#FFFFFF;}
</style>
<g>
	<path class="st0" d="M20.6,3.87c0.98,0,1.78-0.78,1.78-1.75c0-1-0.79-1.76-1.78-1.76c-0.98,0-1.78,0.78-1.78,1.76
		C18.81,3.1,19.6,3.87,20.6,3.87z M20.6,0.63c0.81,0,1.47,0.68,1.47,1.49c0,0.82-0.66,1.48-1.47,1.48c-0.82,0-1.48-0.68-1.48-1.49
		C19.12,1.29,19.78,0.63,20.6,0.63z"/>
	<path class="st0" d="M20.19,2.26h0.07c0.08,0,0.15,0.01,0.19,0.02c0.04,0.01,0.08,0.04,0.11,0.08c0.03,0.04,0.1,0.13,0.19,0.27
		l0.27,0.4h0.44l-0.22-0.36c-0.09-0.14-0.16-0.24-0.21-0.3c-0.05-0.06-0.12-0.11-0.2-0.15c0.16-0.02,0.28-0.08,0.36-0.17
		c0.08-0.09,0.12-0.2,0.12-0.34c0-0.11-0.03-0.2-0.08-0.29c-0.05-0.08-0.12-0.14-0.21-0.17C20.93,1.21,20.79,1.2,20.6,1.2h-0.78
		v1.82h0.37V2.26z M20.19,1.5h0.29c0.15,0,0.24,0,0.27,0.01c0.06,0.01,0.11,0.03,0.14,0.07c0.03,0.04,0.05,0.09,0.05,0.15
		c0,0.05-0.01,0.1-0.04,0.14c-0.02,0.04-0.06,0.06-0.1,0.08c-0.04,0.01-0.15,0.02-0.33,0.02h-0.27V1.5z"/>
	<path class="st0" d="M20.91,11.14c-1.16-0.91-2.38-0.82-2.38-0.82H5.04c0,0-1.6,0.09-2.8-1.15c-1-1.03-1.1-2.2-1.1-2.56
		c0,0.66-0.01,3.84-0.01,4.47c0,0.7,0.23,2.02,1.39,2.96c1.16,0.94,2.45,0.88,2.45,0.88s12.93,0,13.56,0s1.77,0.14,2.83,1.24
		c1.06,1.1,1.01,2.6,1.01,2.6s0-3.84,0-4.6C22.38,13.41,22.07,12.05,20.91,11.14z"/>
	<path class="st0" d="M1.14,6.61c0-0.08,0-0.13,0-0.13S1.14,6.53,1.14,6.61z"/>
</g>
<g>
	<path class="st0" d="M21.59,18.61l-8.08,4.35l8.03-4.81c-0.02-0.13-0.06-0.27-0.11-0.42l-8.04,4.45l7.88-4.82
		c-0.06-0.11-0.12-0.23-0.2-0.35l-7.86,4.41l7.65-4.69c-0.01-0.01-0.02-0.02-0.03-0.03c-0.09-0.1-0.18-0.19-0.27-0.27l-7.6,4.15
		l7.28-4.39c-0.15-0.1-0.29-0.18-0.43-0.25l-7.06,3.79l6.56-3.98c-0.35-0.1-0.6-0.1-0.6-0.1h-0.19l-5.97,3.25l5.08-3.25H16.8
		l-4.44,2.44l3.7-2.44h-0.81l-3.06,1.69l2.42-1.69h-2.89v9.2l9.85-5.69v-0.44C21.58,18.73,21.59,18.69,21.59,18.61z"/>
	<path class="st0" d="M11.76,9.56V0.35L1.91,6.04v0.44c0,0,0,0.04,0,0.12l8.08-4.35L1.96,7.06c0.02,0.13,0.06,0.27,0.11,0.42
		l8.04-4.45L2.23,7.85c0.06,0.11,0.12,0.23,0.2,0.35l7.86-4.41L2.64,8.47C2.65,8.49,2.66,8.5,2.67,8.51
		c0.09,0.1,0.18,0.19,0.27,0.27l7.6-4.15L3.25,9.02C3.4,9.12,3.54,9.2,3.69,9.27l7.06-3.79L4.19,9.45c0.35,0.1,0.6,0.1,0.6,0.1h0.19
		l5.97-3.25L5.86,9.56h0.83l4.44-2.44l-3.7,2.44h0.81l3.06-1.69L8.87,9.56H11.76z"/>
</g>
<g id="XMLID_390_">
	<defs>
		<path id="XMLID_391_" d="M1.15,6.48c0,0-0.1,1.45,1.1,2.69s2.8,1.15,2.8,1.15h13.49c0,0,1.22-0.09,2.38,0.82
			c1.16,0.91,1.47,2.26,1.47,3.02c0,0.76,0,4.6,0,4.6s0.04-1.5-1.01-2.6c-1.06-1.1-2.2-1.24-2.83-1.24s-13.56,0-13.56,0
			s-1.29,0.06-2.45-0.88c-1.16-0.94-1.39-2.26-1.39-2.96C1.13,10.37,1.15,6.48,1.15,6.48z"/>
	</defs>
	<use xlink:href="#XMLID_391_"  style="overflow:visible;fill:#FFFFFF;"/>
	<clipPath id="XMLID_2_">
		<use xlink:href="#XMLID_391_"  style="overflow:visible;"/>
	</clipPath>
</g>
</svg>
