<?xml version="1.0" encoding="utf-8"?>
<!-- Generator: Adobe Illustrator 24.1.2, SVG Export Plug-In . SVG Version: 6.00 Build 0)  -->
<svg version="1.1" id="Layer_1" xmlns="http://www.w3.org/2000/svg" xmlns:xlink="http://www.w3.org/1999/xlink" x="0px" y="0px"
	 viewBox="0 0 30 30" style="enable-background:new 0 0 30 30;" xml:space="preserve">
<style type="text/css">
	.st0{fill:#BA2326;}
</style>
<g>
	<path class="st0" d="M15,0C6.7,0,0,6.7,0,15c0,8.3,6.7,15,15,15c8.3,0,15-6.7,15-15C30,6.7,23.3,0,15,0z M15,29C7.3,29,1,22.7,1,15
		S7.3,1,15,1s14,6.3,14,14S22.7,29,15,29z"/>
	<path class="st0" d="M22.6,20.4c0,0-2.5-1.4-3.2-1.8c-0.7-0.5-1.2-0.1-1.2-0.1s-1.2,1.4-1.6,1.9c-0.4,0.5-1.1,0-1.1,0
		c-4-2-5.7-5.4-6-6c-0.3-0.6,0.2-1.1,0.2-1.1s1-0.8,1.3-1.1c0.3-0.2,1.1-0.6,0.3-1.7c-0.8-1.1-1.6-2.8-1.6-2.8C9.2,6.9,8.8,7,8.8,7
		C6.7,7.4,6.3,8.2,5.7,9.5c-0.7,1.3-0.2,3.3,0.9,5.9s3.8,5.2,5.5,6.6c1.7,1.4,5,2.6,6.4,2.6c1.4,0.1,2.3-0.6,3.2-1.1
		c0.9-0.5,1.1-2,1.1-2.4C22.8,20.6,22.6,20.4,22.6,20.4z"/>
	<path class="st0" d="M20.4,14.8L20.4,14.8l1.1,0l0-0.1c-0.9-3-3.3-5.4-6.2-6.3l-0.1,0v1.1l0,0C17.6,10.3,19.5,12.3,20.4,14.8z"/>
	<path class="st0" d="M17.2,14.8L17.2,14.8l1.2,0l0-0.1c-0.7-1.4-1.8-2.5-3.2-3.2l-0.1-0.1v1.2l0,0C16,13.1,16.7,13.9,17.2,14.8z"/>
	<path class="st0" d="M15.2,5.4L15.2,5.4l-0.1,1l0.1,0c4,1.1,7.1,4.2,8.2,8.3l0,0.1h1.1l0-0.1C23.3,10.2,19.7,6.6,15.2,5.4z"/>
</g>
</svg>
